M48
; DRILL file {KiCad (6.0.1-0)} date 2022 September 28, Wednesday 20:42:39
; FORMAT={-:-/ absolute / metric / decimal}
; #@! TF.CreationDate,2022-09-28T20:42:39+02:00
; #@! TF.GenerationSoftware,Kicad,Pcbnew,(6.0.1-0)
; #@! TF.FileFunction,Plated,1,2,PTH
FMAT,2
METRIC
; #@! TA.AperFunction,Plated,PTH,ComponentDrill
T1C0.800
; #@! TA.AperFunction,Plated,PTH,ComponentDrill
T2C0.900
; #@! TA.AperFunction,Plated,PTH,ComponentDrill
T3C1.270
; #@! TA.AperFunction,Plated,PTH,ComponentDrill
T4C1.499
; #@! TA.AperFunction,Plated,PTH,ComponentDrill
T5C2.000
%
G90
G05
T1
X89.764Y-125.07
X89.814Y-106.121
X89.865Y-67.97
X89.865Y-86.97
X97.384Y-125.07
X97.434Y-106.121
X97.485Y-67.97
X97.485Y-86.97
X99.45Y-55.51
X99.45Y-63.13
X101.89Y-50.65
X101.89Y-58.27
X108.814Y-87.173
X108.814Y-106.121
X108.814Y-125.222
X108.915Y-67.97
X116.434Y-87.173
X116.434Y-106.121
X116.434Y-125.222
X116.535Y-67.97
X118.339Y-51.867
X118.339Y-59.487
X118.389Y-70.891
X118.389Y-78.511
X120.091Y-101.041
X120.091Y-108.661
X121.412Y-45.847
X121.412Y-48.387
X121.412Y-50.927
X121.412Y-53.467
X121.412Y-56.007
X121.412Y-58.547
X121.412Y-61.087
X121.412Y-63.627
X121.412Y-66.167
X121.412Y-68.707
X121.412Y-71.247
X121.412Y-73.787
X127.864Y-82.296
X127.864Y-125.171
X135.484Y-82.296
X135.484Y-125.171
X136.652Y-45.847
X136.652Y-48.387
X136.652Y-50.927
X136.652Y-53.467
X136.652Y-56.007
X136.652Y-58.547
X136.652Y-61.087
X136.652Y-63.627
X136.652Y-66.167
X136.652Y-68.707
X136.652Y-71.247
X136.652Y-73.787
X139.141Y-79.756
X139.141Y-87.376
X139.141Y-98.704
X139.141Y-106.324
X139.776Y-66.497
X139.776Y-74.117
X139.802Y-53.238
X139.802Y-60.858
X143.635Y-129.221
X144.299Y-121.63
X158.242Y-84.43
X158.242Y-92.05
X158.242Y-103.378
X158.242Y-110.998
X159.156Y-49.352
X159.156Y-56.972
X160.731Y-65.583
X167.873Y-130.375
X168.351Y-65.583
X169.845Y-123.015
X177.241Y-84.328
X177.241Y-91.948
X177.343Y-65.227
X177.343Y-72.847
X177.444Y-103.378
X177.444Y-110.998
X178.029Y-49.428
X178.029Y-57.048
X190.475Y-131.976
X194.285Y-125.377
X196.19Y-69.901
X196.19Y-77.521
X196.19Y-89.256
X196.19Y-96.876
X204.064Y-51.206
X211.684Y-51.206
T3
X85.932Y-80.762
X85.932Y-99.812
X85.932Y-118.862
X85.932Y-137.861
X85.983Y-61.712
X90.932Y-82.862
X90.932Y-101.912
X90.932Y-120.962
X90.932Y-139.961
X90.983Y-63.812
X104.982Y-99.812
X104.982Y-118.811
X104.982Y-137.912
X105.033Y-61.712
X105.033Y-80.711
X109.982Y-101.912
X109.982Y-120.911
X109.982Y-140.012
X110.033Y-63.812
X110.033Y-82.811
X124.032Y-56.886
X124.032Y-75.987
X124.032Y-94.986
X124.032Y-114.036
X124.032Y-137.912
X129.032Y-58.986
X129.032Y-78.087
X129.032Y-97.086
X129.032Y-116.136
X129.032Y-140.012
X143.082Y-54.549
X143.082Y-73.65
X143.082Y-92.7
X143.082Y-111.75
X147.088Y-135.023
X148.082Y-56.649
X148.082Y-75.75
X148.082Y-94.8
X148.082Y-113.85
X151.886Y-137.551
X162.183Y-59.274
X162.183Y-78.374
X162.183Y-97.374
X162.183Y-116.424
X167.183Y-61.374
X167.183Y-80.474
X167.183Y-99.474
X167.183Y-118.524
X170.463Y-136.742
X174.749Y-140.065
X181.233Y-59.274
X181.233Y-78.374
X181.233Y-97.374
X181.233Y-116.424
X186.233Y-61.374
X186.233Y-80.474
X186.233Y-99.474
X186.233Y-118.524
X200.232Y-63.998
X200.232Y-83.099
X200.232Y-102.2
X202.416Y-137.294
X205.232Y-66.098
X205.232Y-85.199
X205.232Y-104.3
X206.735Y-134.014
T4
X87.122Y-74.422
X87.122Y-93.472
X87.122Y-112.522
X87.122Y-131.521
X87.173Y-55.372
X93.472Y-71.882
X93.472Y-90.932
X93.472Y-109.982
X93.472Y-128.981
X93.523Y-52.832
X106.172Y-93.472
X106.172Y-112.471
X106.172Y-131.572
X106.223Y-55.372
X106.223Y-74.371
X112.522Y-90.932
X112.522Y-109.931
X112.522Y-129.032
X112.573Y-52.832
X112.573Y-71.831
X125.222Y-50.546
X125.222Y-69.647
X125.222Y-88.646
X125.222Y-107.696
X125.222Y-131.572
X131.572Y-48.006
X131.572Y-67.107
X131.572Y-86.106
X131.572Y-105.156
X131.572Y-129.032
X144.272Y-48.209
X144.272Y-67.31
X144.272Y-86.36
X144.272Y-105.41
X148.826Y-128.811
X150.622Y-45.669
X150.622Y-64.77
X150.622Y-83.82
X150.622Y-102.87
X155.373Y-126.834
X163.373Y-52.934
X163.373Y-72.034
X163.373Y-91.034
X163.373Y-110.084
X169.723Y-50.394
X169.723Y-69.494
X169.723Y-88.494
X169.723Y-107.544
X173.253Y-130.926
X180.044Y-130.116
X182.423Y-52.934
X182.423Y-72.034
X182.423Y-91.034
X182.423Y-110.084
X188.773Y-50.394
X188.773Y-69.494
X188.773Y-88.494
X188.773Y-107.544
X197.52Y-133.094
X198.496Y-126.324
X201.422Y-57.658
X201.422Y-76.759
X201.422Y-95.86
X207.772Y-55.118
X207.772Y-74.219
X207.772Y-93.32
T5
X80.23Y-55.08
X80.23Y-137.12
X80.25Y-95.97
X117.87Y-44.64
X140.45Y-140.32
X159.75Y-44.4
X184.56Y-145.05
X215.74Y-49.51
X215.74Y-114.6
T2
G00X194.129Y-55.633
M15
G01X194.164Y-55.235
M16
G05
G00X194.477Y-51.649
M15
G01X194.512Y-51.25
M16
G05
G00X194.739Y-48.66
M15
G01X194.774Y-48.261
M16
G05
G00X198.615Y-57.13
M15
G01X198.65Y-56.732
M16
G05
T0
M30
