M48
; DRILL file {KiCad (6.0.1-0)} date 2022 September 28, Wednesday 20:42:39
; FORMAT={-:-/ absolute / metric / decimal}
; #@! TF.CreationDate,2022-09-28T20:42:39+02:00
; #@! TF.GenerationSoftware,Kicad,Pcbnew,(6.0.1-0)
; #@! TF.FileFunction,NonPlated,1,2,NPTH
FMAT,2
METRIC
; #@! TA.AperFunction,NonPlated,NPTH,ComponentDrill
T1C0.800
; #@! TA.AperFunction,NonPlated,NPTH,ComponentDrill
T2C0.991
; #@! TA.AperFunction,NonPlated,NPTH,ComponentDrill
T3C1.702
; #@! TA.AperFunction,NonPlated,NPTH,ComponentDrill
T4C3.988
%
G90
G05
T1
X196.577Y-54.041
X197.187Y-47.067
T2
X96.152Y-72.762
X96.152Y-91.812
X96.152Y-110.862
X96.152Y-129.861
X96.203Y-53.712
X115.202Y-91.812
X115.202Y-110.811
X115.202Y-129.912
X115.253Y-53.712
X115.253Y-72.711
X134.252Y-48.886
X134.252Y-67.987
X134.252Y-86.986
X134.252Y-106.036
X134.252Y-129.912
X153.302Y-46.549
X153.302Y-65.65
X153.302Y-84.7
X153.302Y-103.75
X157.966Y-127.945
X172.403Y-51.274
X172.403Y-70.374
X172.403Y-89.374
X172.403Y-108.424
X182.405Y-131.66
X191.453Y-51.274
X191.453Y-70.374
X191.453Y-89.374
X191.453Y-108.424
X200.598Y-124.443
X210.452Y-55.998
X210.452Y-75.099
X210.452Y-94.2
T3
X85.432Y-76.962
X85.432Y-96.012
X85.432Y-115.062
X85.432Y-134.061
X85.483Y-57.912
X85.852Y-76.962
X85.852Y-96.012
X85.852Y-115.062
X85.852Y-134.061
X85.903Y-57.912
X96.012Y-76.962
X96.012Y-96.012
X96.012Y-115.062
X96.012Y-134.061
X96.063Y-57.912
X96.432Y-76.962
X96.432Y-96.012
X96.432Y-115.062
X96.432Y-134.061
X96.483Y-57.912
X104.482Y-96.012
X104.482Y-115.011
X104.482Y-134.112
X104.533Y-57.912
X104.533Y-76.911
X104.902Y-96.012
X104.902Y-115.011
X104.902Y-134.112
X104.953Y-57.912
X104.953Y-76.911
X115.062Y-96.012
X115.062Y-115.011
X115.062Y-134.112
X115.113Y-57.912
X115.113Y-76.911
X115.482Y-96.012
X115.482Y-115.011
X115.482Y-134.112
X115.533Y-57.912
X115.533Y-76.911
X123.532Y-53.086
X123.532Y-72.187
X123.532Y-91.186
X123.532Y-110.236
X123.532Y-134.112
X123.952Y-53.086
X123.952Y-72.187
X123.952Y-91.186
X123.952Y-110.236
X123.952Y-134.112
X134.112Y-53.086
X134.112Y-72.187
X134.112Y-91.186
X134.112Y-110.236
X134.112Y-134.112
X134.532Y-53.086
X134.532Y-72.187
X134.532Y-91.186
X134.532Y-110.236
X134.532Y-134.112
X142.582Y-50.749
X142.582Y-69.85
X142.582Y-88.9
X142.582Y-107.95
X143.002Y-50.749
X143.002Y-69.85
X143.002Y-88.9
X143.002Y-107.95
X146.921Y-131.194
X147.339Y-131.231
X153.162Y-50.749
X153.162Y-69.85
X153.162Y-88.9
X153.162Y-107.95
X153.582Y-50.749
X153.582Y-69.85
X153.582Y-88.9
X153.582Y-107.95
X157.461Y-132.116
X157.879Y-132.153
X161.683Y-55.474
X161.683Y-74.574
X161.683Y-93.574
X161.683Y-112.624
X162.103Y-55.474
X162.103Y-74.574
X162.103Y-93.574
X162.103Y-112.624
X170.963Y-132.942
X171.369Y-133.051
X172.263Y-55.474
X172.263Y-74.574
X172.263Y-93.574
X172.263Y-112.624
X172.683Y-55.474
X172.683Y-74.574
X172.683Y-93.574
X172.683Y-112.624
X180.733Y-55.474
X180.733Y-74.574
X180.733Y-93.574
X180.733Y-112.624
X181.153Y-55.474
X181.153Y-74.574
X181.153Y-93.574
X181.153Y-112.624
X181.183Y-135.681
X181.589Y-135.79
X191.313Y-55.474
X191.313Y-74.574
X191.313Y-93.574
X191.313Y-112.624
X191.733Y-55.474
X191.733Y-74.574
X191.733Y-93.574
X191.733Y-112.624
X198.875Y-135.827
X199.085Y-135.463
X199.732Y-60.198
X199.732Y-79.299
X199.732Y-98.4
X200.152Y-60.198
X200.152Y-79.299
X200.152Y-98.4
X204.165Y-126.665
X204.375Y-126.301
X210.312Y-60.198
X210.312Y-79.299
X210.312Y-98.4
X210.732Y-60.198
X210.732Y-79.299
X210.732Y-98.4
T4
X90.932Y-76.962
X90.932Y-96.012
X90.932Y-115.062
X90.932Y-134.061
X90.983Y-57.912
X109.982Y-96.012
X109.982Y-115.011
X109.982Y-134.112
X110.033Y-57.912
X110.033Y-76.911
X129.032Y-53.086
X129.032Y-72.187
X129.032Y-91.186
X129.032Y-110.236
X129.032Y-134.112
X148.082Y-50.749
X148.082Y-69.85
X148.082Y-88.9
X148.082Y-107.95
X152.4Y-131.674
X167.183Y-55.474
X167.183Y-74.574
X167.183Y-93.574
X167.183Y-112.624
X176.276Y-134.366
X186.233Y-55.474
X186.233Y-74.574
X186.233Y-93.574
X186.233Y-112.624
X201.625Y-131.064
X205.232Y-60.198
X205.232Y-79.299
X205.232Y-98.4
T0
M30
