%TF.GenerationSoftware,KiCad,Pcbnew,(6.0.1-0)*%
%TF.CreationDate,2022-09-28T20:42:43+02:00*%
%TF.ProjectId,Takmak-left,54616b6d-616b-42d6-9c65-66742e6b6963,rev?*%
%TF.SameCoordinates,Original*%
%TF.FileFunction,Soldermask,Top*%
%TF.FilePolarity,Negative*%
%FSLAX46Y46*%
G04 Gerber Fmt 4.6, Leading zero omitted, Abs format (unit mm)*
G04 Created by KiCad (PCBNEW (6.0.1-0)) date 2022-09-28 20:42:43*
%MOMM*%
%LPD*%
G01*
G04 APERTURE LIST*
G04 Aperture macros list*
%AMHorizOval*
0 Thick line with rounded ends*
0 $1 width*
0 $2 $3 position (X,Y) of the first rounded end (center of the circle)*
0 $4 $5 position (X,Y) of the second rounded end (center of the circle)*
0 Add line between two ends*
20,1,$1,$2,$3,$4,$5,0*
0 Add two circle primitives to create the rounded ends*
1,1,$1,$2,$3*
1,1,$1,$4,$5*%
%AMRotRect*
0 Rectangle, with rotation*
0 The origin of the aperture is its center*
0 $1 length*
0 $2 width*
0 $3 Rotation angle, in degrees counterclockwise*
0 Add horizontal line*
21,1,$1,$2,0,0,$3*%
G04 Aperture macros list end*
%ADD10C,1.701800*%
%ADD11C,3.987800*%
%ADD12C,0.990600*%
%ADD13C,2.032000*%
%ADD14C,2.286000*%
%ADD15C,2.200000*%
%ADD16R,1.600000X1.600000*%
%ADD17O,1.600000X1.600000*%
%ADD18RotRect,1.600000X1.600000X265.000000*%
%ADD19HorizOval,1.600000X0.000000X0.000000X0.000000X0.000000X0*%
%ADD20C,0.800000*%
%ADD21HorizOval,1.600000X0.017431X0.199239X-0.017431X-0.199239X0*%
%ADD22RotRect,1.600000X1.600000X240.000000*%
%ADD23HorizOval,1.600000X0.000000X0.000000X0.000000X0.000000X0*%
%ADD24RotRect,1.600000X1.600000X255.000000*%
%ADD25HorizOval,1.600000X0.000000X0.000000X0.000000X0.000000X0*%
G04 APERTURE END LIST*
D10*
%TO.C,SW20*%
X123532000Y-72186800D03*
X134532000Y-72186800D03*
X123952000Y-72186800D03*
X134112000Y-72186800D03*
D11*
X129032000Y-72186800D03*
D12*
X134252000Y-67986800D03*
D13*
X129032000Y-78086800D03*
D14*
X131572000Y-67106800D03*
D13*
X124032000Y-75986800D03*
D14*
X125222000Y-69646800D03*
%TD*%
D11*
%TO.C,SW6*%
X186232800Y-74574400D03*
D10*
X181152800Y-74574400D03*
X180732800Y-74574400D03*
D12*
X191452800Y-70374400D03*
D10*
X191312800Y-74574400D03*
X191732800Y-74574400D03*
D14*
X188772800Y-69494400D03*
D13*
X186232800Y-80474400D03*
D14*
X182422800Y-72034400D03*
D13*
X181232800Y-78374400D03*
%TD*%
D11*
%TO.C,SW28*%
X109982000Y-134112000D03*
D10*
X104482000Y-134112000D03*
D12*
X115202000Y-129912000D03*
D10*
X104902000Y-134112000D03*
X115062000Y-134112000D03*
X115482000Y-134112000D03*
D13*
X109982000Y-140012000D03*
D14*
X112522000Y-129032000D03*
D13*
X104982000Y-137912000D03*
D14*
X106172000Y-131572000D03*
%TD*%
D11*
%TO.C,SW9*%
X167182800Y-55473600D03*
D10*
X172262800Y-55473600D03*
X172682800Y-55473600D03*
X162102800Y-55473600D03*
X161682800Y-55473600D03*
D12*
X172402800Y-51273600D03*
D13*
X167182800Y-61373600D03*
D14*
X169722800Y-50393600D03*
D13*
X162182800Y-59273600D03*
D14*
X163372800Y-52933600D03*
%TD*%
D15*
%TO.C,U4*%
X80250000Y-95970000D03*
%TD*%
D10*
%TO.C,SW25*%
X115112800Y-76911200D03*
D11*
X110032800Y-76911200D03*
D10*
X115532800Y-76911200D03*
X104952800Y-76911200D03*
D12*
X115252800Y-72711200D03*
D10*
X104532800Y-76911200D03*
D14*
X112572800Y-71831200D03*
D13*
X110032800Y-82811200D03*
D14*
X106222800Y-74371200D03*
D13*
X105032800Y-80711200D03*
%TD*%
D10*
%TO.C,SW16*%
X142582000Y-88900000D03*
X143002000Y-88900000D03*
X153162000Y-88900000D03*
X153582000Y-88900000D03*
D12*
X153302000Y-84700000D03*
D11*
X148082000Y-88900000D03*
D13*
X148082000Y-94800000D03*
D14*
X150622000Y-83820000D03*
X144272000Y-86360000D03*
D13*
X143082000Y-92700000D03*
%TD*%
D12*
%TO.C,SW12*%
X172402800Y-108423600D03*
D10*
X161682800Y-112623600D03*
X162102800Y-112623600D03*
D11*
X167182800Y-112623600D03*
D10*
X172262800Y-112623600D03*
X172682800Y-112623600D03*
D13*
X167182800Y-118523600D03*
D14*
X169722800Y-107543600D03*
D13*
X162182800Y-116423600D03*
D14*
X163372800Y-110083600D03*
%TD*%
D12*
%TO.C,SW13*%
X182405173Y-131660147D03*
D10*
X181588592Y-135789505D03*
X171369097Y-133051199D03*
D11*
X176276000Y-134366000D03*
D10*
X170963408Y-132942495D03*
X181182903Y-135680801D03*
D13*
X174748968Y-140064962D03*
D14*
X180044252Y-130116497D03*
X173253223Y-130926448D03*
D13*
X170462858Y-136742423D03*
%TD*%
D10*
%TO.C,SW3*%
X210732000Y-98399600D03*
D12*
X210452000Y-94199600D03*
D11*
X205232000Y-98399600D03*
D10*
X210312000Y-98399600D03*
X200152000Y-98399600D03*
X199732000Y-98399600D03*
D14*
X207772000Y-93319600D03*
D13*
X205232000Y-104299600D03*
D14*
X201422000Y-95859600D03*
D13*
X200232000Y-102199600D03*
%TD*%
D10*
%TO.C,SW23*%
X134532000Y-134112000D03*
D11*
X129032000Y-134112000D03*
D10*
X134112000Y-134112000D03*
D12*
X134252000Y-129912000D03*
D10*
X123532000Y-134112000D03*
X123952000Y-134112000D03*
D14*
X131572000Y-129032000D03*
D13*
X129032000Y-140012000D03*
D14*
X125222000Y-131572000D03*
D13*
X124032000Y-137912000D03*
%TD*%
D12*
%TO.C,SW32*%
X96152000Y-110862000D03*
D10*
X96012000Y-115062000D03*
D11*
X90932000Y-115062000D03*
D10*
X85852000Y-115062000D03*
X85432000Y-115062000D03*
X96432000Y-115062000D03*
D13*
X90932000Y-120962000D03*
D14*
X93472000Y-109982000D03*
D13*
X85932000Y-118862000D03*
D14*
X87122000Y-112522000D03*
%TD*%
D11*
%TO.C,SW11*%
X167182800Y-93573600D03*
D10*
X172262800Y-93573600D03*
X162102800Y-93573600D03*
X172682800Y-93573600D03*
D12*
X172402800Y-89373600D03*
D10*
X161682800Y-93573600D03*
D14*
X169722800Y-88493600D03*
D13*
X167182800Y-99473600D03*
X162182800Y-97373600D03*
D14*
X163372800Y-91033600D03*
%TD*%
D15*
%TO.C,U4*%
X140450000Y-140320000D03*
%TD*%
D10*
%TO.C,SW2*%
X199732000Y-79298800D03*
X210312000Y-79298800D03*
D12*
X210452000Y-75098800D03*
D11*
X205232000Y-79298800D03*
D10*
X200152000Y-79298800D03*
X210732000Y-79298800D03*
D13*
X205232000Y-85198800D03*
D14*
X207772000Y-74218800D03*
X201422000Y-76758800D03*
D13*
X200232000Y-83098800D03*
%TD*%
D15*
%TO.C,U4*%
X80230000Y-55080000D03*
%TD*%
D10*
%TO.C,SW7*%
X191732800Y-93573600D03*
X180732800Y-93573600D03*
D11*
X186232800Y-93573600D03*
D10*
X181152800Y-93573600D03*
D12*
X191452800Y-89373600D03*
D10*
X191312800Y-93573600D03*
D14*
X188772800Y-88493600D03*
D13*
X186232800Y-99473600D03*
X181232800Y-97373600D03*
D14*
X182422800Y-91033600D03*
%TD*%
D10*
%TO.C,SW27*%
X115482000Y-115011200D03*
X104482000Y-115011200D03*
D11*
X109982000Y-115011200D03*
D10*
X115062000Y-115011200D03*
X104902000Y-115011200D03*
D12*
X115202000Y-110811200D03*
D13*
X109982000Y-120911200D03*
D14*
X112522000Y-109931200D03*
X106172000Y-112471200D03*
D13*
X104982000Y-118811200D03*
%TD*%
D10*
%TO.C,SW31*%
X85852000Y-96012000D03*
D12*
X96152000Y-91812000D03*
D10*
X96432000Y-96012000D03*
X85432000Y-96012000D03*
D11*
X90932000Y-96012000D03*
D10*
X96012000Y-96012000D03*
D14*
X93472000Y-90932000D03*
D13*
X90932000Y-101912000D03*
X85932000Y-99812000D03*
D14*
X87122000Y-93472000D03*
%TD*%
D10*
%TO.C,SW10*%
X172682800Y-74574400D03*
X172262800Y-74574400D03*
D11*
X167182800Y-74574400D03*
D12*
X172402800Y-70374400D03*
D10*
X161682800Y-74574400D03*
X162102800Y-74574400D03*
D13*
X167182800Y-80474400D03*
D14*
X169722800Y-69494400D03*
X163372800Y-72034400D03*
D13*
X162182800Y-78374400D03*
%TD*%
D16*
%TO.C,U1*%
X121412000Y-45847000D03*
D17*
X121412000Y-48387000D03*
X121412000Y-50927000D03*
X121412000Y-53467000D03*
X121412000Y-56007000D03*
X121412000Y-58547000D03*
X121412000Y-61087000D03*
X121412000Y-63627000D03*
X121412000Y-66167000D03*
X121412000Y-68707000D03*
X121412000Y-71247000D03*
X121412000Y-73787000D03*
X136652000Y-73787000D03*
X136652000Y-71247000D03*
X136652000Y-68707000D03*
X136652000Y-66167000D03*
X136652000Y-63627000D03*
X136652000Y-61087000D03*
X136652000Y-58547000D03*
X136652000Y-56007000D03*
X136652000Y-53467000D03*
X136652000Y-50927000D03*
X136652000Y-48387000D03*
X136652000Y-45847000D03*
%TD*%
D10*
%TO.C,SW8*%
X191312800Y-112623600D03*
D11*
X186232800Y-112623600D03*
D12*
X191452800Y-108423600D03*
D10*
X180732800Y-112623600D03*
X181152800Y-112623600D03*
X191732800Y-112623600D03*
D13*
X186232800Y-118523600D03*
D14*
X188772800Y-107543600D03*
D13*
X181232800Y-116423600D03*
D14*
X182422800Y-110083600D03*
%TD*%
D11*
%TO.C,SW19*%
X129032000Y-53086000D03*
D12*
X134252000Y-48886000D03*
D10*
X134532000Y-53086000D03*
X123532000Y-53086000D03*
X134112000Y-53086000D03*
X123952000Y-53086000D03*
D13*
X129032000Y-58986000D03*
D14*
X131572000Y-48006000D03*
X125222000Y-50546000D03*
D13*
X124032000Y-56886000D03*
%TD*%
D10*
%TO.C,SW4*%
X204375200Y-126300860D03*
D12*
X200597893Y-124443347D03*
D10*
X199085200Y-135463409D03*
X204165200Y-126664591D03*
D11*
X201625200Y-131064000D03*
D10*
X198875200Y-135827140D03*
D14*
X198495791Y-126324295D03*
D13*
X206734750Y-134014000D03*
X202416097Y-137294127D03*
D14*
X197520495Y-133093557D03*
%TD*%
D12*
%TO.C,SW21*%
X134252000Y-86986000D03*
D10*
X123532000Y-91186000D03*
X123952000Y-91186000D03*
D11*
X129032000Y-91186000D03*
D10*
X134112000Y-91186000D03*
X134532000Y-91186000D03*
D13*
X129032000Y-97086000D03*
D14*
X131572000Y-86106000D03*
X125222000Y-88646000D03*
D13*
X124032000Y-94986000D03*
%TD*%
D15*
%TO.C,U4*%
X117870000Y-44640000D03*
%TD*%
%TO.C,U4*%
X184560000Y-145050000D03*
%TD*%
D11*
%TO.C,SW15*%
X148082000Y-69850000D03*
D12*
X153302000Y-65650000D03*
D10*
X142582000Y-69850000D03*
X153162000Y-69850000D03*
X153582000Y-69850000D03*
X143002000Y-69850000D03*
D13*
X148082000Y-75750000D03*
D14*
X150622000Y-64770000D03*
D13*
X143082000Y-73650000D03*
D14*
X144272000Y-67310000D03*
%TD*%
D15*
%TO.C,U4*%
X215740000Y-114600000D03*
%TD*%
D12*
%TO.C,SW1*%
X210452000Y-55998000D03*
D10*
X200152000Y-60198000D03*
X210312000Y-60198000D03*
X199732000Y-60198000D03*
D11*
X205232000Y-60198000D03*
D10*
X210732000Y-60198000D03*
D13*
X205232000Y-66098000D03*
D14*
X207772000Y-55118000D03*
X201422000Y-57658000D03*
D13*
X200232000Y-63998000D03*
%TD*%
D15*
%TO.C,U4*%
X215740000Y-49510000D03*
%TD*%
%TO.C,U4*%
X80230000Y-137120000D03*
%TD*%
D10*
%TO.C,SW22*%
X134112000Y-110236000D03*
X123532000Y-110236000D03*
X123952000Y-110236000D03*
X134532000Y-110236000D03*
D12*
X134252000Y-106036000D03*
D11*
X129032000Y-110236000D03*
D14*
X131572000Y-105156000D03*
D13*
X129032000Y-116136000D03*
X124032000Y-114036000D03*
D14*
X125222000Y-107696000D03*
%TD*%
D15*
%TO.C,U4*%
X159750000Y-44400000D03*
%TD*%
D12*
%TO.C,SW17*%
X153302000Y-103750000D03*
D10*
X143002000Y-107950000D03*
X153582000Y-107950000D03*
X153162000Y-107950000D03*
X142582000Y-107950000D03*
D11*
X148082000Y-107950000D03*
D13*
X148082000Y-113850000D03*
D14*
X150622000Y-102870000D03*
D13*
X143082000Y-111750000D03*
D14*
X144272000Y-105410000D03*
%TD*%
D10*
%TO.C,SW29*%
X96062800Y-57912000D03*
D11*
X90982800Y-57912000D03*
D10*
X85482800Y-57912000D03*
X96482800Y-57912000D03*
D12*
X96202800Y-53712000D03*
D10*
X85902800Y-57912000D03*
D14*
X93522800Y-52832000D03*
D13*
X90982800Y-63812000D03*
D14*
X87172800Y-55372000D03*
D13*
X85982800Y-61712000D03*
%TD*%
D11*
%TO.C,SW30*%
X90932000Y-76962000D03*
D10*
X85432000Y-76962000D03*
D12*
X96152000Y-72762000D03*
D10*
X85852000Y-76962000D03*
X96432000Y-76962000D03*
X96012000Y-76962000D03*
D14*
X93472000Y-71882000D03*
D13*
X90932000Y-82862000D03*
D14*
X87122000Y-74422000D03*
D13*
X85932000Y-80762000D03*
%TD*%
D11*
%TO.C,SW26*%
X109982000Y-96012000D03*
D10*
X115482000Y-96012000D03*
X104902000Y-96012000D03*
X104482000Y-96012000D03*
D12*
X115202000Y-91812000D03*
D10*
X115062000Y-96012000D03*
D14*
X112522000Y-90932000D03*
D13*
X109982000Y-101912000D03*
D14*
X106172000Y-93472000D03*
D13*
X104982000Y-99812000D03*
%TD*%
D10*
%TO.C,SW24*%
X115532800Y-57912000D03*
X115112800Y-57912000D03*
X104532800Y-57912000D03*
D11*
X110032800Y-57912000D03*
D10*
X104952800Y-57912000D03*
D12*
X115252800Y-53712000D03*
D14*
X112572800Y-52832000D03*
D13*
X110032800Y-63812000D03*
X105032800Y-61712000D03*
D14*
X106222800Y-55372000D03*
%TD*%
D12*
%TO.C,SW18*%
X157966190Y-127944535D03*
D10*
X157460669Y-132116351D03*
X147339331Y-131230849D03*
X157879071Y-132152957D03*
X146920929Y-131194243D03*
D11*
X152400000Y-131673600D03*
D14*
X155373086Y-126834307D03*
D13*
X151885781Y-137551149D03*
X147087835Y-135023361D03*
D14*
X148825874Y-128811202D03*
%TD*%
D10*
%TO.C,SW5*%
X180732800Y-55473600D03*
D12*
X191452800Y-51273600D03*
D10*
X191732800Y-55473600D03*
X181152800Y-55473600D03*
X191312800Y-55473600D03*
D11*
X186232800Y-55473600D03*
D13*
X186232800Y-61373600D03*
D14*
X188772800Y-50393600D03*
D13*
X181232800Y-59273600D03*
D14*
X182422800Y-52933600D03*
%TD*%
D11*
%TO.C,SW14*%
X148082000Y-50749200D03*
D10*
X143002000Y-50749200D03*
X153582000Y-50749200D03*
X142582000Y-50749200D03*
D12*
X153302000Y-46549200D03*
D10*
X153162000Y-50749200D03*
D13*
X148082000Y-56649200D03*
D14*
X150622000Y-45669200D03*
X144272000Y-48209200D03*
D13*
X143082000Y-54549200D03*
%TD*%
D12*
%TO.C,SW33*%
X96152000Y-129861200D03*
D10*
X85852000Y-134061200D03*
X96012000Y-134061200D03*
X85432000Y-134061200D03*
D11*
X90932000Y-134061200D03*
D10*
X96432000Y-134061200D03*
D14*
X93472000Y-128981200D03*
D13*
X90932000Y-139961200D03*
D14*
X87122000Y-131521200D03*
D13*
X85932000Y-137861200D03*
%TD*%
D18*
%TO.C,D18*%
X144299264Y-121629698D03*
D19*
X143635137Y-129220702D03*
%TD*%
D16*
%TO.C,D22*%
X120091200Y-101041200D03*
D17*
X120091200Y-108661200D03*
%TD*%
D16*
%TO.C,D23*%
X135483600Y-125171200D03*
D17*
X127863600Y-125171200D03*
%TD*%
D16*
%TO.C,D27*%
X116433600Y-106121200D03*
D17*
X108813600Y-106121200D03*
%TD*%
D16*
%TO.C,D6*%
X177342800Y-65227200D03*
D17*
X177342800Y-72847200D03*
%TD*%
D16*
%TO.C,D7*%
X177241200Y-84328000D03*
D17*
X177241200Y-91948000D03*
%TD*%
D20*
%TO.C,J1*%
X196576953Y-54040638D03*
X197187043Y-47067276D03*
D21*
X194494879Y-51449313D03*
X194756346Y-48460729D03*
X198632880Y-56930822D03*
X194146256Y-55434092D03*
%TD*%
D16*
%TO.C,D19*%
X118338600Y-51866800D03*
D17*
X118338600Y-59486800D03*
%TD*%
D16*
%TO.C,D26*%
X116433600Y-87172800D03*
D17*
X108813600Y-87172800D03*
%TD*%
D16*
%TO.C,D3*%
X196189600Y-89255600D03*
D17*
X196189600Y-96875600D03*
%TD*%
D16*
%TO.C,D24*%
X101890000Y-50650000D03*
D17*
X101890000Y-58270000D03*
%TD*%
D16*
%TO.C,D5*%
X178028600Y-49428400D03*
D17*
X178028600Y-57048400D03*
%TD*%
D16*
%TO.C,D25*%
X116535200Y-67970400D03*
D17*
X108915200Y-67970400D03*
%TD*%
D16*
%TO.C,D2*%
X196189600Y-69900800D03*
D17*
X196189600Y-77520800D03*
%TD*%
D16*
%TO.C,D11*%
X158242000Y-84429600D03*
D17*
X158242000Y-92049600D03*
%TD*%
D16*
%TO.C,D31*%
X97485200Y-86969600D03*
D17*
X89865200Y-86969600D03*
%TD*%
D16*
%TO.C,D10*%
X160731200Y-65582800D03*
D17*
X168351200Y-65582800D03*
%TD*%
D22*
%TO.C,D4*%
X194284600Y-125376844D03*
D23*
X190474600Y-131975958D03*
%TD*%
D16*
%TO.C,D8*%
X177444400Y-103378000D03*
D17*
X177444400Y-110998000D03*
%TD*%
D16*
%TO.C,D12*%
X158242000Y-103378000D03*
D17*
X158242000Y-110998000D03*
%TD*%
D16*
%TO.C,D9*%
X159156400Y-49352200D03*
D17*
X159156400Y-56972200D03*
%TD*%
D16*
%TO.C,D29*%
X99450000Y-55510000D03*
D17*
X99450000Y-63130000D03*
%TD*%
D16*
%TO.C,D17*%
X139141200Y-98704400D03*
D17*
X139141200Y-106324400D03*
%TD*%
D24*
%TO.C,D13*%
X169845301Y-123015023D03*
D25*
X167873100Y-130375378D03*
%TD*%
D16*
%TO.C,D1*%
X204063600Y-51206400D03*
D17*
X211683600Y-51206400D03*
%TD*%
D16*
%TO.C,D21*%
X135483600Y-82296000D03*
D17*
X127863600Y-82296000D03*
%TD*%
D16*
%TO.C,D15*%
X139776200Y-66497200D03*
D17*
X139776200Y-74117200D03*
%TD*%
D16*
%TO.C,D33*%
X97383600Y-125069600D03*
D17*
X89763600Y-125069600D03*
%TD*%
D16*
%TO.C,D32*%
X97434400Y-106121200D03*
D17*
X89814400Y-106121200D03*
%TD*%
D16*
%TO.C,D20*%
X118389400Y-70891400D03*
D17*
X118389400Y-78511400D03*
%TD*%
D16*
%TO.C,D14*%
X139801600Y-53238400D03*
D17*
X139801600Y-60858400D03*
%TD*%
D16*
%TO.C,D16*%
X139141200Y-79756000D03*
D17*
X139141200Y-87376000D03*
%TD*%
D16*
%TO.C,D28*%
X116433600Y-125222000D03*
D17*
X108813600Y-125222000D03*
%TD*%
D16*
%TO.C,D30*%
X97485200Y-67970400D03*
D17*
X89865200Y-67970400D03*
%TD*%
M02*
