M48
; DRILL file {KiCad (6.0.1-0)} date 2022 September 28, Wednesday 20:44:05
; FORMAT={-:-/ absolute / metric / decimal}
; #@! TF.CreationDate,2022-09-28T20:44:05+02:00
; #@! TF.GenerationSoftware,Kicad,Pcbnew,(6.0.1-0)
; #@! TF.FileFunction,NonPlated,1,2,NPTH
FMAT,2
METRIC
; #@! TA.AperFunction,NonPlated,NPTH,ComponentDrill
T1C0.800
; #@! TA.AperFunction,NonPlated,NPTH,ComponentDrill
T2C0.991
; #@! TA.AperFunction,NonPlated,NPTH,ComponentDrill
T3C1.702
; #@! TA.AperFunction,NonPlated,NPTH,ComponentDrill
T4C1.800
; #@! TA.AperFunction,NonPlated,NPTH,ComponentDrill
T5C3.988
%
G90
G05
T1
X43.497Y-27.07
X44.107Y-34.043
T2
X40.145Y-36.313
X40.145Y-55.363
X40.145Y-74.413
X44.982Y-113.546
X59.195Y-31.487
X59.195Y-50.537
X59.195Y-69.587
X59.195Y-88.637
X68.09Y-109.019
X78.245Y-31.487
X78.245Y-50.537
X78.245Y-69.587
X78.245Y-88.637
X92.718Y-107.121
X97.295Y-26.788
X97.295Y-45.838
X97.295Y-64.888
X97.295Y-83.938
X116.345Y-29.074
X116.345Y-48.124
X116.345Y-67.174
X116.345Y-86.224
X116.345Y-109.973
X135.395Y-33.9
X135.395Y-52.95
X135.395Y-72.0
X135.395Y-91.05
X135.395Y-110.1
X154.445Y-33.9
X154.445Y-52.95
X154.445Y-72.0
X154.445Y-110.1
X163.97Y-91.05
X173.495Y-33.9
X173.495Y-52.95
X173.495Y-72.0
X173.495Y-110.1
T3
X29.425Y-40.513
X29.425Y-59.563
X29.425Y-78.613
X29.845Y-40.513
X29.845Y-59.563
X29.845Y-78.613
X35.985Y-106.362
X36.195Y-106.726
X40.005Y-40.513
X40.005Y-59.563
X40.005Y-78.613
X40.425Y-40.513
X40.425Y-59.563
X40.425Y-78.613
X41.275Y-115.524
X41.485Y-115.888
X48.475Y-35.687
X48.475Y-54.737
X48.475Y-73.787
X48.475Y-92.837
X48.895Y-35.687
X48.895Y-54.737
X48.895Y-73.787
X48.895Y-92.837
X58.822Y-115.851
X59.055Y-35.687
X59.055Y-54.737
X59.055Y-73.787
X59.055Y-92.837
X59.228Y-115.742
X59.475Y-35.687
X59.475Y-54.737
X59.475Y-73.787
X59.475Y-92.837
X67.525Y-35.687
X67.525Y-54.737
X67.525Y-73.787
X67.525Y-92.837
X67.945Y-35.687
X67.945Y-54.737
X67.945Y-73.787
X67.945Y-92.837
X69.042Y-113.112
X69.448Y-113.003
X78.105Y-35.687
X78.105Y-54.737
X78.105Y-73.787
X78.105Y-92.837
X78.525Y-35.687
X78.525Y-54.737
X78.525Y-73.787
X78.525Y-92.837
X82.405Y-112.239
X82.823Y-112.203
X86.575Y-30.988
X86.575Y-50.038
X86.575Y-69.088
X86.575Y-88.138
X86.995Y-30.988
X86.995Y-50.038
X86.995Y-69.088
X86.995Y-88.138
X92.945Y-111.317
X93.363Y-111.281
X97.155Y-30.988
X97.155Y-50.038
X97.155Y-69.088
X97.155Y-88.138
X97.575Y-30.988
X97.575Y-50.038
X97.575Y-69.088
X97.575Y-88.138
X105.625Y-33.274
X105.625Y-52.324
X105.625Y-71.374
X105.625Y-90.424
X105.625Y-114.173
X106.045Y-33.274
X106.045Y-52.324
X106.045Y-71.374
X106.045Y-90.424
X106.045Y-114.173
X116.205Y-33.274
X116.205Y-52.324
X116.205Y-71.374
X116.205Y-90.424
X116.205Y-114.173
X116.625Y-33.274
X116.625Y-52.324
X116.625Y-71.374
X116.625Y-90.424
X116.625Y-114.173
X124.675Y-38.1
X124.675Y-57.15
X124.675Y-76.2
X124.675Y-95.25
X124.675Y-114.3
X125.095Y-38.1
X125.095Y-57.15
X125.095Y-76.2
X125.095Y-95.25
X125.095Y-114.3
X135.255Y-38.1
X135.255Y-57.15
X135.255Y-76.2
X135.255Y-95.25
X135.255Y-114.3
X135.675Y-38.1
X135.675Y-57.15
X135.675Y-76.2
X135.675Y-95.25
X135.675Y-114.3
X143.725Y-38.1
X143.725Y-57.15
X143.725Y-76.2
X143.725Y-114.3
X144.145Y-38.1
X144.145Y-57.15
X144.145Y-76.2
X144.145Y-114.3
X153.25Y-95.25
X153.67Y-95.25
X154.305Y-38.1
X154.305Y-57.15
X154.305Y-76.2
X154.305Y-114.3
X154.725Y-38.1
X154.725Y-57.15
X154.725Y-76.2
X154.725Y-114.3
X162.775Y-38.1
X162.775Y-57.15
X162.775Y-76.2
X162.775Y-114.3
X163.195Y-38.1
X163.195Y-57.15
X163.195Y-76.2
X163.195Y-114.3
X163.83Y-95.25
X164.25Y-95.25
X173.355Y-38.1
X173.355Y-57.15
X173.355Y-76.2
X173.355Y-114.3
X173.775Y-38.1
X173.775Y-57.15
X173.775Y-76.2
X173.775Y-114.3
T4
X24.79Y-30.099
X24.841Y-94.92
X54.966Y-126.162
X80.493Y-24.968
X99.822Y-120.04
X122.149Y-26.264
X139.675Y-119.913
X178.994Y-35.001
X178.994Y-75.641
X178.994Y-117.043
T5
X34.925Y-40.513
X34.925Y-59.563
X34.925Y-78.613
X38.735Y-111.125
X53.975Y-35.687
X53.975Y-54.737
X53.975Y-73.787
X53.975Y-92.837
X64.135Y-114.427
X73.025Y-35.687
X73.025Y-54.737
X73.025Y-73.787
X73.025Y-92.837
X87.884Y-111.76
X92.075Y-30.988
X92.075Y-50.038
X92.075Y-69.088
X92.075Y-88.138
X111.125Y-33.274
X111.125Y-52.324
X111.125Y-71.374
X111.125Y-90.424
X111.125Y-114.173
X130.175Y-38.1
X130.175Y-57.15
X130.175Y-76.2
X130.175Y-95.25
X130.175Y-114.3
X149.225Y-38.1
X149.225Y-57.15
X149.225Y-76.2
X149.225Y-114.3
X158.75Y-95.25
X168.275Y-38.1
X168.275Y-57.15
X168.275Y-76.2
X168.275Y-114.3
T0
M30
