M48
; DRILL file {KiCad (6.0.1-0)} date 2022 September 28, Wednesday 20:44:05
; FORMAT={-:-/ absolute / metric / decimal}
; #@! TF.CreationDate,2022-09-28T20:44:05+02:00
; #@! TF.GenerationSoftware,Kicad,Pcbnew,(6.0.1-0)
; #@! TF.FileFunction,Plated,1,2,PTH
FMAT,2
METRIC
; #@! TA.AperFunction,Plated,PTH,ViaDrill
T1C0.400
; #@! TA.AperFunction,Plated,PTH,ComponentDrill
T2C0.800
; #@! TA.AperFunction,Plated,PTH,ComponentDrill
T3C0.900
; #@! TA.AperFunction,Plated,PTH,ComponentDrill
T4C1.270
; #@! TA.AperFunction,Plated,PTH,ComponentDrill
T5C1.499
%
G90
G05
T1
X64.262Y-44.323
T2
X25.781Y-52.959
X25.781Y-60.579
X26.162Y-34.036
X26.162Y-41.656
X26.162Y-72.136
X26.162Y-79.756
X33.022Y-93.726
X39.622Y-89.916
X45.085Y-48.26
X45.085Y-55.88
X45.212Y-67.31
X45.212Y-74.93
X45.212Y-86.36
X45.212Y-93.98
X54.005Y-110.493
X55.977Y-117.853
X62.738Y-27.203
X62.738Y-34.823
X64.262Y-48.26
X64.262Y-55.88
X64.262Y-67.31
X64.262Y-74.93
X64.262Y-86.36
X64.262Y-93.98
X69.342Y-26.924
X76.962Y-26.924
X78.535Y-106.059
X79.199Y-113.651
X83.185Y-29.21
X83.185Y-36.83
X83.312Y-62.738
X83.312Y-70.358
X83.312Y-81.661
X83.312Y-89.281
X83.439Y-43.688
X83.439Y-51.308
X100.965Y-26.797
X100.965Y-34.417
X100.965Y-45.847
X100.965Y-53.467
X102.362Y-64.897
X102.362Y-72.517
X102.362Y-83.947
X102.362Y-91.567
X102.362Y-107.696
X102.362Y-115.316
X103.505Y-25.908
X103.505Y-28.448
X103.505Y-30.988
X103.505Y-33.528
X103.505Y-36.068
X103.505Y-38.608
X103.505Y-41.148
X103.505Y-43.688
X103.505Y-46.228
X103.505Y-48.768
X103.505Y-51.308
X103.505Y-53.848
X118.745Y-25.908
X118.745Y-28.448
X118.745Y-30.988
X118.745Y-33.528
X118.745Y-36.068
X118.745Y-38.608
X118.745Y-41.148
X118.745Y-43.688
X118.745Y-46.228
X118.745Y-48.768
X118.745Y-51.308
X118.745Y-53.848
X121.285Y-31.623
X121.285Y-39.243
X121.412Y-50.673
X121.412Y-58.293
X121.412Y-69.723
X121.412Y-77.343
X121.412Y-88.773
X121.412Y-96.393
X121.412Y-107.823
X121.412Y-115.443
X140.081Y-31.623
X140.081Y-39.243
X140.208Y-50.673
X140.208Y-58.293
X140.208Y-69.723
X140.208Y-77.343
X140.462Y-107.823
X140.462Y-115.443
X147.32Y-86.614
X154.94Y-86.614
X159.258Y-31.623
X159.258Y-39.243
X159.258Y-50.673
X159.258Y-58.293
X159.258Y-69.723
X159.258Y-77.343
X159.512Y-107.823
X159.512Y-115.443
T4
X29.925Y-44.313
X29.925Y-63.363
X29.925Y-82.413
X32.944Y-108.695
X33.625Y-114.075
X34.925Y-46.413
X34.925Y-65.463
X34.925Y-84.513
X48.975Y-39.487
X48.975Y-58.537
X48.975Y-77.587
X48.975Y-96.637
X53.975Y-41.587
X53.975Y-60.637
X53.975Y-79.687
X53.975Y-98.737
X60.289Y-119.392
X65.662Y-120.126
X68.025Y-39.487
X68.025Y-58.537
X68.025Y-77.587
X68.025Y-96.637
X73.025Y-41.587
X73.025Y-60.637
X73.025Y-79.687
X73.025Y-98.737
X83.234Y-115.981
X87.075Y-34.788
X87.075Y-53.838
X87.075Y-72.888
X87.075Y-91.938
X88.398Y-117.638
X92.075Y-36.888
X92.075Y-55.938
X92.075Y-74.988
X92.075Y-94.038
X106.125Y-37.074
X106.125Y-56.124
X106.125Y-75.174
X106.125Y-94.224
X106.125Y-117.973
X111.125Y-39.174
X111.125Y-58.224
X111.125Y-77.274
X111.125Y-96.324
X111.125Y-120.073
X125.175Y-41.9
X125.175Y-60.95
X125.175Y-80.0
X125.175Y-99.05
X125.175Y-118.1
X130.175Y-44.0
X130.175Y-63.05
X130.175Y-82.1
X130.175Y-101.15
X130.175Y-120.2
X144.225Y-41.9
X144.225Y-60.95
X144.225Y-80.0
X144.225Y-118.1
X149.225Y-44.0
X149.225Y-63.05
X149.225Y-82.1
X149.225Y-120.2
X153.75Y-99.05
X158.75Y-101.15
X163.275Y-41.9
X163.275Y-60.95
X163.275Y-80.0
X163.275Y-118.1
X168.275Y-44.0
X168.275Y-63.05
X168.275Y-82.1
X168.275Y-120.2
T5
X31.115Y-37.973
X31.115Y-57.023
X31.115Y-76.073
X37.465Y-35.433
X37.465Y-54.483
X37.465Y-73.533
X39.03Y-106.555
X44.404Y-110.785
X50.165Y-33.147
X50.165Y-52.197
X50.165Y-71.247
X50.165Y-90.297
X56.515Y-30.607
X56.515Y-49.657
X56.515Y-68.707
X56.515Y-87.757
X59.797Y-112.96
X65.274Y-108.863
X69.215Y-33.147
X69.215Y-52.197
X69.215Y-71.247
X69.215Y-90.297
X75.565Y-30.607
X75.565Y-49.657
X75.565Y-68.707
X75.565Y-87.757
X83.867Y-109.562
X88.265Y-28.448
X88.265Y-47.498
X88.265Y-66.548
X88.265Y-85.598
X89.972Y-106.478
X94.615Y-25.908
X94.615Y-44.958
X94.615Y-64.008
X94.615Y-83.058
X107.315Y-30.734
X107.315Y-49.784
X107.315Y-68.834
X107.315Y-87.884
X107.315Y-111.633
X113.665Y-28.194
X113.665Y-47.244
X113.665Y-66.294
X113.665Y-85.344
X113.665Y-109.093
X126.365Y-35.56
X126.365Y-54.61
X126.365Y-73.66
X126.365Y-92.71
X126.365Y-111.76
X132.715Y-33.02
X132.715Y-52.07
X132.715Y-71.12
X132.715Y-90.17
X132.715Y-109.22
X145.415Y-35.56
X145.415Y-54.61
X145.415Y-73.66
X145.415Y-111.76
X151.765Y-33.02
X151.765Y-52.07
X151.765Y-71.12
X151.765Y-109.22
X154.94Y-92.71
X161.29Y-90.17
X164.465Y-35.56
X164.465Y-54.61
X164.465Y-73.66
X164.465Y-111.76
X170.815Y-33.02
X170.815Y-52.07
X170.815Y-71.12
X170.815Y-109.22
T3
G00X41.363Y-29.064
M15
G01X41.328Y-28.665
M16
G05
G00X41.624Y-32.052
M15
G01X41.589Y-31.654
M16
G05
G00X41.973Y-36.037
M15
G01X41.938Y-35.639
M16
G05
G00X46.651Y-36.732
M15
G01X46.616Y-36.334
M16
G05
T0
M30
