G04 #@! TF.GenerationSoftware,KiCad,Pcbnew,(6.0.1-0)*
G04 #@! TF.CreationDate,2022-09-28T20:44:09+02:00*
G04 #@! TF.ProjectId,takmak,74616b6d-616b-42e6-9b69-6361645f7063,rev?*
G04 #@! TF.SameCoordinates,Original*
G04 #@! TF.FileFunction,Soldermask,Top*
G04 #@! TF.FilePolarity,Negative*
%FSLAX46Y46*%
G04 Gerber Fmt 4.6, Leading zero omitted, Abs format (unit mm)*
G04 Created by KiCad (PCBNEW (6.0.1-0)) date 2022-09-28 20:44:09*
%MOMM*%
%LPD*%
G01*
G04 APERTURE LIST*
G04 Aperture macros list*
%AMRoundRect*
0 Rectangle with rounded corners*
0 $1 Rounding radius*
0 $2 $3 $4 $5 $6 $7 $8 $9 X,Y pos of 4 corners*
0 Add a 4 corners polygon primitive as box body*
4,1,4,$2,$3,$4,$5,$6,$7,$8,$9,$2,$3,0*
0 Add four circle primitives for the rounded corners*
1,1,$1+$1,$2,$3*
1,1,$1+$1,$4,$5*
1,1,$1+$1,$6,$7*
1,1,$1+$1,$8,$9*
0 Add four rect primitives between the rounded corners*
20,1,$1+$1,$2,$3,$4,$5,0*
20,1,$1+$1,$4,$5,$6,$7,0*
20,1,$1+$1,$6,$7,$8,$9,0*
20,1,$1+$1,$8,$9,$2,$3,0*%
%AMHorizOval*
0 Thick line with rounded ends*
0 $1 width*
0 $2 $3 position (X,Y) of the first rounded end (center of the circle)*
0 $4 $5 position (X,Y) of the second rounded end (center of the circle)*
0 Add line between two ends*
20,1,$1,$2,$3,$4,$5,0*
0 Add two circle primitives to create the rounded ends*
1,1,$1,$2,$3*
1,1,$1,$4,$5*%
G04 Aperture macros list end*
%ADD10C,1.803800*%
%ADD11C,4.089800*%
%ADD12C,1.092600*%
%ADD13C,2.388000*%
%ADD14C,2.134000*%
%ADD15RoundRect,0.051000X0.800000X0.800000X-0.800000X0.800000X-0.800000X-0.800000X0.800000X-0.800000X0*%
%ADD16O,1.702000X1.702000*%
%ADD17C,2.202000*%
%ADD18RoundRect,0.051000X-0.800000X0.800000X-0.800000X-0.800000X0.800000X-0.800000X0.800000X0.800000X0*%
%ADD19RoundRect,0.051000X0.292820X1.092820X-1.092820X0.292820X-0.292820X-1.092820X1.092820X-0.292820X0*%
%ADD20HorizOval,1.702000X0.000000X0.000000X0.000000X0.000000X0*%
%ADD21C,0.902000*%
%ADD22HorizOval,1.702000X-0.017431X0.199239X0.017431X-0.199239X0*%
%ADD23RoundRect,0.051000X-0.979796X0.565685X-0.565685X-0.979796X0.979796X-0.565685X0.565685X0.979796X0*%
%ADD24HorizOval,1.702000X0.000000X0.000000X0.000000X0.000000X0*%
%ADD25RoundRect,0.051000X-0.800000X-0.800000X0.800000X-0.800000X0.800000X0.800000X-0.800000X0.800000X0*%
%ADD26RoundRect,0.051000X-0.866680X0.727231X-0.727231X-0.866680X0.866680X-0.727231X0.727231X0.866680X0*%
%ADD27HorizOval,1.702000X0.000000X0.000000X0.000000X0.000000X0*%
G04 APERTURE END LIST*
D10*
X86575000Y-30988000D03*
X97575000Y-30988000D03*
D11*
X92075000Y-30988000D03*
D10*
X97155000Y-30988000D03*
X86995000Y-30988000D03*
D12*
X97295000Y-26788000D03*
D13*
X94615000Y-25908000D03*
D14*
X92075000Y-36888000D03*
D13*
X88265000Y-28448000D03*
D14*
X87075000Y-34788000D03*
D10*
X153250000Y-95250000D03*
D12*
X163970000Y-91050000D03*
D10*
X164250000Y-95250000D03*
X153670000Y-95250000D03*
D11*
X158750000Y-95250000D03*
D10*
X163830000Y-95250000D03*
D13*
X161290000Y-90170000D03*
D14*
X158750000Y-101150000D03*
X153750000Y-99050000D03*
D13*
X154940000Y-92710000D03*
D10*
X86995000Y-88138000D03*
D11*
X92075000Y-88138000D03*
D12*
X97295000Y-83938000D03*
D10*
X97575000Y-88138000D03*
X86575000Y-88138000D03*
X97155000Y-88138000D03*
D14*
X92075000Y-94038000D03*
D13*
X94615000Y-83058000D03*
D14*
X87075000Y-91938000D03*
D13*
X88265000Y-85598000D03*
D10*
X69041903Y-113112199D03*
D12*
X68090093Y-109019076D03*
D10*
X58822408Y-115850505D03*
X69447592Y-113003495D03*
D11*
X64135000Y-114427000D03*
D10*
X59228097Y-115741801D03*
D14*
X65662032Y-120125962D03*
D13*
X65273651Y-108862696D03*
D14*
X60288883Y-119391613D03*
D13*
X59797422Y-112959649D03*
D10*
X116205000Y-33274000D03*
D11*
X111125000Y-33274000D03*
D12*
X116345000Y-29074000D03*
D10*
X116625000Y-33274000D03*
X106045000Y-33274000D03*
X105625000Y-33274000D03*
D13*
X113665000Y-28194000D03*
D14*
X111125000Y-39174000D03*
X106125000Y-37074000D03*
D13*
X107315000Y-30734000D03*
D10*
X135675000Y-114300000D03*
D12*
X135395000Y-110100000D03*
D10*
X135255000Y-114300000D03*
X124675000Y-114300000D03*
D11*
X130175000Y-114300000D03*
D10*
X125095000Y-114300000D03*
D13*
X132715000Y-109220000D03*
D14*
X130175000Y-120200000D03*
X125175000Y-118100000D03*
D13*
X126365000Y-111760000D03*
D12*
X116345000Y-48124000D03*
D10*
X116205000Y-52324000D03*
X116625000Y-52324000D03*
D11*
X111125000Y-52324000D03*
D10*
X106045000Y-52324000D03*
X105625000Y-52324000D03*
D14*
X111125000Y-58224000D03*
D13*
X113665000Y-47244000D03*
D14*
X106125000Y-56124000D03*
D13*
X107315000Y-49784000D03*
D10*
X67525000Y-35687000D03*
X78525000Y-35687000D03*
D11*
X73025000Y-35687000D03*
D10*
X67945000Y-35687000D03*
D12*
X78245000Y-31487000D03*
D10*
X78105000Y-35687000D03*
D13*
X75565000Y-30607000D03*
D14*
X73025000Y-41587000D03*
X68025000Y-39487000D03*
D13*
X69215000Y-33147000D03*
D11*
X53975000Y-54737000D03*
D10*
X59055000Y-54737000D03*
X48475000Y-54737000D03*
X48895000Y-54737000D03*
D12*
X59195000Y-50537000D03*
D10*
X59475000Y-54737000D03*
D14*
X53975000Y-60637000D03*
D13*
X56515000Y-49657000D03*
X50165000Y-52197000D03*
D14*
X48975000Y-58537000D03*
D10*
X154725000Y-57150000D03*
X143725000Y-57150000D03*
D12*
X154445000Y-52950000D03*
D10*
X144145000Y-57150000D03*
D11*
X149225000Y-57150000D03*
D10*
X154305000Y-57150000D03*
D14*
X149225000Y-63050000D03*
D13*
X151765000Y-52070000D03*
D14*
X144225000Y-60950000D03*
D13*
X145415000Y-54610000D03*
D15*
X103505000Y-25908000D03*
D16*
X103505000Y-28448000D03*
X103505000Y-30988000D03*
X103505000Y-33528000D03*
X103505000Y-36068000D03*
X103505000Y-38608000D03*
X103505000Y-41148000D03*
X103505000Y-43688000D03*
X103505000Y-46228000D03*
X103505000Y-48768000D03*
X103505000Y-51308000D03*
X103505000Y-53848000D03*
X118745000Y-53848000D03*
X118745000Y-51308000D03*
X118745000Y-48768000D03*
X118745000Y-46228000D03*
X118745000Y-43688000D03*
X118745000Y-41148000D03*
X118745000Y-38608000D03*
X118745000Y-36068000D03*
X118745000Y-33528000D03*
X118745000Y-30988000D03*
X118745000Y-28448000D03*
X118745000Y-25908000D03*
D12*
X116345000Y-67174000D03*
D10*
X116205000Y-71374000D03*
X116625000Y-71374000D03*
X106045000Y-71374000D03*
D11*
X111125000Y-71374000D03*
D10*
X105625000Y-71374000D03*
D13*
X113665000Y-66294000D03*
D14*
X111125000Y-77274000D03*
X106125000Y-75174000D03*
D13*
X107315000Y-68834000D03*
D11*
X92075000Y-50038000D03*
D10*
X97575000Y-50038000D03*
X86995000Y-50038000D03*
X86575000Y-50038000D03*
D12*
X97295000Y-45838000D03*
D10*
X97155000Y-50038000D03*
D13*
X94615000Y-44958000D03*
D14*
X92075000Y-55938000D03*
X87075000Y-53838000D03*
D13*
X88265000Y-47498000D03*
D11*
X53975000Y-92837000D03*
D10*
X59475000Y-92837000D03*
D12*
X59195000Y-88637000D03*
D10*
X59055000Y-92837000D03*
X48475000Y-92837000D03*
X48895000Y-92837000D03*
D14*
X53975000Y-98737000D03*
D13*
X56515000Y-87757000D03*
X50165000Y-90297000D03*
D14*
X48975000Y-96637000D03*
D17*
X24790400Y-30099000D03*
D11*
X53975000Y-73787000D03*
D12*
X59195000Y-69587000D03*
D10*
X48475000Y-73787000D03*
X59475000Y-73787000D03*
X59055000Y-73787000D03*
X48895000Y-73787000D03*
D13*
X56515000Y-68707000D03*
D14*
X53975000Y-79687000D03*
D13*
X50165000Y-71247000D03*
D14*
X48975000Y-77587000D03*
D10*
X154725000Y-76200000D03*
X154305000Y-76200000D03*
D12*
X154445000Y-72000000D03*
D10*
X143725000Y-76200000D03*
D11*
X149225000Y-76200000D03*
D10*
X144145000Y-76200000D03*
D14*
X149225000Y-82100000D03*
D13*
X151765000Y-71120000D03*
D14*
X144225000Y-80000000D03*
D13*
X145415000Y-73660000D03*
D10*
X78105000Y-54737000D03*
D11*
X73025000Y-54737000D03*
D10*
X67525000Y-54737000D03*
X67945000Y-54737000D03*
D12*
X78245000Y-50537000D03*
D10*
X78525000Y-54737000D03*
D13*
X75565000Y-49657000D03*
D14*
X73025000Y-60637000D03*
X68025000Y-58537000D03*
D13*
X69215000Y-52197000D03*
D10*
X124675000Y-38100000D03*
X135255000Y-38100000D03*
X135675000Y-38100000D03*
D12*
X135395000Y-33900000D03*
D11*
X130175000Y-38100000D03*
D10*
X125095000Y-38100000D03*
D14*
X130175000Y-44000000D03*
D13*
X132715000Y-33020000D03*
D14*
X125175000Y-41900000D03*
D13*
X126365000Y-35560000D03*
D10*
X154725000Y-114300000D03*
X144145000Y-114300000D03*
X154305000Y-114300000D03*
X143725000Y-114300000D03*
D12*
X154445000Y-110100000D03*
D11*
X149225000Y-114300000D03*
D13*
X151765000Y-109220000D03*
D14*
X149225000Y-120200000D03*
X144225000Y-118100000D03*
D13*
X145415000Y-111760000D03*
D12*
X154445000Y-33900000D03*
D11*
X149225000Y-38100000D03*
D10*
X154725000Y-38100000D03*
X144145000Y-38100000D03*
X143725000Y-38100000D03*
X154305000Y-38100000D03*
D14*
X149225000Y-44000000D03*
D13*
X151765000Y-33020000D03*
D14*
X144225000Y-41900000D03*
D13*
X145415000Y-35560000D03*
D10*
X135255000Y-76200000D03*
X124675000Y-76200000D03*
D12*
X135395000Y-72000000D03*
D10*
X125095000Y-76200000D03*
X135675000Y-76200000D03*
D11*
X130175000Y-76200000D03*
D13*
X132715000Y-71120000D03*
D14*
X130175000Y-82100000D03*
D13*
X126365000Y-73660000D03*
D14*
X125175000Y-80000000D03*
D12*
X78245000Y-69587000D03*
D10*
X67945000Y-73787000D03*
X67525000Y-73787000D03*
D11*
X73025000Y-73787000D03*
D10*
X78525000Y-73787000D03*
X78105000Y-73787000D03*
D13*
X75565000Y-68707000D03*
D14*
X73025000Y-79687000D03*
X68025000Y-77587000D03*
D13*
X69215000Y-71247000D03*
D10*
X163195000Y-57150000D03*
D12*
X173495000Y-52950000D03*
D10*
X173355000Y-57150000D03*
X162775000Y-57150000D03*
D11*
X168275000Y-57150000D03*
D10*
X173775000Y-57150000D03*
D14*
X168275000Y-63050000D03*
D13*
X170815000Y-52070000D03*
D14*
X163275000Y-60950000D03*
D13*
X164465000Y-54610000D03*
D10*
X163195000Y-38100000D03*
X162775000Y-38100000D03*
D12*
X173495000Y-33900000D03*
D10*
X173775000Y-38100000D03*
X173355000Y-38100000D03*
D11*
X168275000Y-38100000D03*
D13*
X170815000Y-33020000D03*
D14*
X168275000Y-44000000D03*
D13*
X164465000Y-35560000D03*
D14*
X163275000Y-41900000D03*
D10*
X29845000Y-40513000D03*
D12*
X40145000Y-36313000D03*
D10*
X40425000Y-40513000D03*
X29425000Y-40513000D03*
D11*
X34925000Y-40513000D03*
D10*
X40005000Y-40513000D03*
D13*
X37465000Y-35433000D03*
D14*
X34925000Y-46413000D03*
X29925000Y-44313000D03*
D13*
X31115000Y-37973000D03*
D10*
X93363071Y-111280643D03*
X82404929Y-112239357D03*
X82823331Y-112202751D03*
D11*
X87884000Y-111760000D03*
D12*
X92718082Y-107121029D03*
D10*
X92944669Y-111317249D03*
D14*
X88398219Y-117637549D03*
D13*
X89971583Y-106477955D03*
D14*
X83234218Y-115981319D03*
D13*
X83867123Y-109561729D03*
D10*
X135675000Y-57150000D03*
D12*
X135395000Y-52950000D03*
D10*
X124675000Y-57150000D03*
X125095000Y-57150000D03*
D11*
X130175000Y-57150000D03*
D10*
X135255000Y-57150000D03*
D14*
X130175000Y-63050000D03*
D13*
X132715000Y-52070000D03*
X126365000Y-54610000D03*
D14*
X125175000Y-60950000D03*
D10*
X173355000Y-114300000D03*
X163195000Y-114300000D03*
X162775000Y-114300000D03*
D11*
X168275000Y-114300000D03*
D12*
X173495000Y-110100000D03*
D10*
X173775000Y-114300000D03*
D14*
X168275000Y-120200000D03*
D13*
X170815000Y-109220000D03*
D14*
X163275000Y-118100000D03*
D13*
X164465000Y-111760000D03*
D12*
X40145000Y-74413000D03*
D10*
X29845000Y-78613000D03*
D11*
X34925000Y-78613000D03*
D10*
X40005000Y-78613000D03*
X29425000Y-78613000D03*
X40425000Y-78613000D03*
D14*
X34925000Y-84513000D03*
D13*
X37465000Y-73533000D03*
D14*
X29925000Y-82413000D03*
D13*
X31115000Y-76073000D03*
D10*
X48475000Y-35687000D03*
D11*
X53975000Y-35687000D03*
D12*
X59195000Y-31487000D03*
D10*
X59475000Y-35687000D03*
X48895000Y-35687000D03*
X59055000Y-35687000D03*
D14*
X53975000Y-41587000D03*
D13*
X56515000Y-30607000D03*
X50165000Y-33147000D03*
D14*
X48975000Y-39487000D03*
D17*
X178993800Y-35001200D03*
X122148600Y-26263600D03*
X80492600Y-24968200D03*
X99822000Y-120040400D03*
X24841200Y-94919800D03*
X178993800Y-117043200D03*
X54965600Y-126161800D03*
X139674600Y-119913400D03*
X178993800Y-75641200D03*
D10*
X78105000Y-92837000D03*
X67525000Y-92837000D03*
D12*
X78245000Y-88637000D03*
D10*
X78525000Y-92837000D03*
D11*
X73025000Y-92837000D03*
D10*
X67945000Y-92837000D03*
D14*
X73025000Y-98737000D03*
D13*
X75565000Y-87757000D03*
X69215000Y-90297000D03*
D14*
X68025000Y-96637000D03*
D11*
X111125000Y-90424000D03*
D12*
X116345000Y-86224000D03*
D10*
X106045000Y-90424000D03*
X105625000Y-90424000D03*
X116205000Y-90424000D03*
X116625000Y-90424000D03*
D14*
X111125000Y-96324000D03*
D13*
X113665000Y-85344000D03*
X107315000Y-87884000D03*
D14*
X106125000Y-94224000D03*
D12*
X44982307Y-113545653D03*
D11*
X38735000Y-111125000D03*
D10*
X35985000Y-106361860D03*
X36195000Y-106725591D03*
X41485000Y-115888140D03*
X41275000Y-115524409D03*
D14*
X33625450Y-114075000D03*
D13*
X44404409Y-110784705D03*
D14*
X32944103Y-108694873D03*
D13*
X39029705Y-106555443D03*
D10*
X97575000Y-69088000D03*
D11*
X92075000Y-69088000D03*
D10*
X97155000Y-69088000D03*
D12*
X97295000Y-64888000D03*
D10*
X86995000Y-69088000D03*
X86575000Y-69088000D03*
D14*
X92075000Y-74988000D03*
D13*
X94615000Y-64008000D03*
X88265000Y-66548000D03*
D14*
X87075000Y-72888000D03*
D12*
X116345000Y-109973000D03*
D10*
X116205000Y-114173000D03*
D11*
X111125000Y-114173000D03*
D10*
X105625000Y-114173000D03*
X116625000Y-114173000D03*
X106045000Y-114173000D03*
D14*
X111125000Y-120073000D03*
D13*
X113665000Y-109093000D03*
X107315000Y-111633000D03*
D14*
X106125000Y-117973000D03*
D10*
X173355000Y-76200000D03*
D12*
X173495000Y-72000000D03*
D10*
X162775000Y-76200000D03*
D11*
X168275000Y-76200000D03*
D10*
X163195000Y-76200000D03*
X173775000Y-76200000D03*
D14*
X168275000Y-82100000D03*
D13*
X170815000Y-71120000D03*
X164465000Y-73660000D03*
D14*
X163275000Y-80000000D03*
D12*
X40145000Y-55363000D03*
D11*
X34925000Y-59563000D03*
D10*
X29845000Y-59563000D03*
X40425000Y-59563000D03*
X40005000Y-59563000D03*
X29425000Y-59563000D03*
D13*
X37465000Y-54483000D03*
D14*
X34925000Y-65463000D03*
X29925000Y-63363000D03*
D13*
X31115000Y-57023000D03*
D10*
X125095000Y-95250000D03*
X135255000Y-95250000D03*
D11*
X130175000Y-95250000D03*
D10*
X135675000Y-95250000D03*
D12*
X135395000Y-91050000D03*
D10*
X124675000Y-95250000D03*
D14*
X130175000Y-101150000D03*
D13*
X132715000Y-90170000D03*
X126365000Y-92710000D03*
D14*
X125175000Y-99050000D03*
D18*
X26162000Y-34036000D03*
D16*
X26162000Y-41656000D03*
D19*
X39621557Y-89916000D03*
D20*
X33022443Y-93726000D03*
D18*
X159258000Y-50673000D03*
D16*
X159258000Y-58293000D03*
D18*
X159258000Y-31623000D03*
D16*
X159258000Y-39243000D03*
D18*
X140462000Y-107823000D03*
D16*
X140462000Y-115443000D03*
D18*
X140208000Y-69723000D03*
D16*
X140208000Y-77343000D03*
D18*
X121285000Y-31623000D03*
D16*
X121285000Y-39243000D03*
D21*
X43497249Y-27070112D03*
X44107339Y-34043474D03*
D22*
X41606918Y-31853065D03*
X41345451Y-28864481D03*
X46633908Y-36532742D03*
X41955541Y-35837844D03*
D18*
X102362000Y-64897000D03*
D16*
X102362000Y-72517000D03*
D18*
X62738000Y-27203400D03*
D16*
X62738000Y-34823400D03*
D18*
X83185000Y-29210000D03*
D16*
X83185000Y-36830000D03*
D18*
X121412000Y-107823000D03*
D16*
X121412000Y-115443000D03*
D23*
X54004900Y-110492823D03*
D24*
X55977101Y-117853178D03*
D18*
X64262000Y-48260000D03*
D16*
X64262000Y-55880000D03*
D18*
X64262000Y-67310000D03*
D16*
X64262000Y-74930000D03*
D18*
X26162000Y-72136000D03*
D16*
X26162000Y-79756000D03*
D18*
X25781000Y-52959000D03*
D16*
X25781000Y-60579000D03*
D18*
X45085000Y-48260000D03*
D16*
X45085000Y-55880000D03*
D18*
X102362000Y-107696000D03*
D16*
X102362000Y-115316000D03*
D18*
X159512000Y-107823000D03*
D16*
X159512000Y-115443000D03*
D18*
X83312000Y-62738000D03*
D16*
X83312000Y-70358000D03*
D18*
X121412000Y-88773000D03*
D16*
X121412000Y-96393000D03*
D18*
X45212000Y-67310000D03*
D16*
X45212000Y-74930000D03*
D18*
X64262000Y-86360000D03*
D16*
X64262000Y-93980000D03*
D18*
X100965000Y-45847000D03*
D16*
X100965000Y-53467000D03*
D18*
X140208000Y-50673000D03*
D16*
X140208000Y-58293000D03*
D25*
X147320000Y-86614000D03*
D16*
X154940000Y-86614000D03*
D18*
X159258000Y-69723000D03*
D16*
X159258000Y-77343000D03*
D18*
X45212000Y-86360000D03*
D16*
X45212000Y-93980000D03*
D15*
X76962000Y-26924000D03*
D16*
X69342000Y-26924000D03*
D18*
X83312000Y-81661000D03*
D16*
X83312000Y-89281000D03*
D18*
X100965000Y-26797000D03*
D16*
X100965000Y-34417000D03*
D18*
X140081000Y-31623000D03*
D16*
X140081000Y-39243000D03*
D18*
X121412000Y-69723000D03*
D16*
X121412000Y-77343000D03*
D18*
X121412000Y-50673000D03*
D16*
X121412000Y-58293000D03*
D18*
X83439000Y-43688000D03*
D16*
X83439000Y-51308000D03*
D26*
X78534937Y-106059498D03*
D27*
X79199064Y-113650502D03*
D18*
X102362000Y-83947000D03*
D16*
X102362000Y-91567000D03*
G36*
X47583763Y-35769320D02*
G01*
X47594776Y-35874098D01*
X47652910Y-36053018D01*
X47685839Y-36110053D01*
X47685839Y-36112053D01*
X47684107Y-36113053D01*
X47682658Y-36112431D01*
X47635176Y-36062507D01*
X47567891Y-36046093D01*
X47502413Y-36068663D01*
X47459532Y-36123049D01*
X47452845Y-36191927D01*
X47451682Y-36193555D01*
X47449691Y-36193361D01*
X47448892Y-36192122D01*
X47426617Y-36079623D01*
X47358553Y-35923830D01*
X47358776Y-35921842D01*
X47360609Y-35921041D01*
X47361662Y-35921489D01*
X47414741Y-35965458D01*
X47483496Y-35973789D01*
X47545840Y-35943627D01*
X47582044Y-35884444D01*
X47585859Y-35842078D01*
X47579781Y-35769696D01*
X47580633Y-35767887D01*
X47582626Y-35767719D01*
X47583763Y-35769320D01*
G37*
M02*
